<svg id="_x31_" enable-background="new 0 0 24 24" height="512" viewBox="0 0 365.696 365.696" width="512" xmlns="http://www.w3.org/2000/svg"><g><path d="m16 18c-2.757 0-5-2.243-5-5s2.243-5 5-5 5 2.243 5 5-2.243 5-5 5zm0-9c-2.206 0-4 1.794-4 4s1.794 4 4 4 4-1.794 4-4-1.794-4-4-4z"/></g><g><path d="m21.5 21h-19c-1.378 0-2.5-1.122-2.5-2.5v-11c0-1.378 1.122-2.5 2.5-2.5h7.691l.809-1.618c.427-.853 1.283-1.382 2.236-1.382h4.528c.953 0 1.809.529 2.236 1.382l.809 1.618h.691c1.378 0 2.5 1.122 2.5 2.5v11c0 1.378-1.122 2.5-2.5 2.5zm-19-15c-.827 0-1.5.673-1.5 1.5v11c0 .827.673 1.5 1.5 1.5h19c.827 0 1.5-.673 1.5-1.5v-11c0-.827-.673-1.5-1.5-1.5h-1c-.189 0-.362-.107-.447-.276l-.947-1.895c-.256-.511-.771-.829-1.342-.829h-4.528c-.571 0-1.085.318-1.341.829l-.947 1.895c-.086.169-.259.276-.448.276z"/></g><g><path d="m7.5 6c-.276 0-.5-.224-.5-.5v-1c0-.276-.224-.5-.5-.5h-2c-.276 0-.5.224-.5.5v1c0 .276-.224.5-.5.5s-.5-.224-.5-.5v-1c0-.827.673-1.5 1.5-1.5h2c.827 0 1.5.673 1.5 1.5v1c0 .276-.224.5-.5.5z"/></g><g><path d="m7.5 11h-4c-.276 0-.5-.224-.5-.5v-2c0-.276.224-.5.5-.5h4c.276 0 .5.224.5.5v2c0 .276-.224.5-.5.5zm-3.5-1h3v-1h-3z"/></g></svg>